<svg xmlns="http://www.w3.org/2000/svg" viewBox="0 0 140 73" width="140" height="73"><path d="M137.61 69.14C128.87 69.94 131.41 56.78 128.89 52.02C127.21 48.82 123.95 46.76 120.38 46.38C115.95 45.91 113.27 48.3 109.99 50.85C101.51 57.43 93.8 50.83 90.37 42.65C92.6 37.01 92.75 30.62 89.99 24.08C84.02 9.9 69.03 1.33 53.88 2.23C46.93 2.65 40.38 4.63 33.97 7.15C33.14 4.1 28.19 3.11 25.67 4.24C22.61 5.62 21.55 9.07 22.63 11.98C16.06 14.86 9.47 17.66 2.55 19.22C2.28 18.73 2 18.25 1.73 17.77C1.52 17.38 0.95 17.61 1.1 18.04C1.29 18.61 1.51 19.18 1.72 19.75C1.34 20.36 1.61 21.31 2.37 21.43C13.45 48.81 44.58 72.64 74.38 58.72C81.16 55.56 86.59 50.53 89.56 44.47C91.46 49.17 94.43 53.49 99.49 55.17C104.81 56.93 108.49 54.64 112.58 51.45C118.21 47.07 125.77 47.84 127.77 55.71C128.47 58.46 128.15 61.41 128.88 64.17C130.01 68.36 133.27 72.29 137.94 71.31C139.32 71.01 139.02 69.02 137.61 69.14M26.57 5.78C27.81 5.32 29.26 5.51 30.43 6.11C31.26 6.53 31.74 7.2 32.3 7.82C29.35 9.03 26.42 10.31 23.49 11.6C23.14 9.29 24.33 6.6 26.57 5.78M5.9 21.41C5.62 21.21 5.33 21.02 5.02 20.89C5.5 20.78 5.99 20.67 6.48 20.54C6.32 20.86 6.13 21.15 5.9 21.41M42.76 58.38C25.39 53.29 14.64 39.63 5.84 24.9C6.19 25.03 6.61 24.93 6.82 24.49C7.2 23.66 7.59 22.84 7.96 22.02C8.25 21.57 8.44 21.09 8.6 20.56C8.62 20.5 8.66 20.43 8.66 20.43L8.65 20.42C8.64 20.42 8.72 20.23 8.74 20.14C8.76 20.06 8.75 19.98 8.75 19.91C22.47 15.82 34.93 7.92 49.11 5.42C58.49 3.77 67.93 5.29 75.85 10.74C84.28 16.53 91.38 27.2 89.58 37.85C86.14 58.27 59.27 63.22 42.76 58.38" fill="#143fff"/><path d="M15.71 20.39C14.3 19.92 12.84 21 12.75 22.45C12.7 23.16 13.65 23.22 13.82 22.57C13.94 22.05 14.7 21.64 15.2 21.87C15.88 22.18 15.58 22.89 15.5 23.43C15.41 24.09 16.29 24.62 16.8 24.15C18.01 23.04 17.14 20.86 15.71 20.39" fill="#143fff"/><path d="M41.05 17.88C37.65 14.05 31.4 13.9 27.91 17.57C27.64 17.85 27.79 18.22 28.05 18.42C27.9 18.64 27.83 18.91 27.93 19.24C29.74 25.11 32.72 30.83 35.13 36.48C35.37 37.04 36.16 37.28 36.64 36.86C41.43 32.72 46.12 23.58 41.05 17.88M36.4 34.4C34.25 29.11 32.29 23.52 29.56 18.54C29.44 18.34 29.29 18.22 29.14 18.14C32.23 15.63 37.4 15.89 39.91 19.22C43.42 23.86 40.09 30.67 36.4 34.4" fill="#143fff"/></svg>