<svg xmlns="http://www.w3.org/2000/svg" viewBox="0 0 68 68" width="68" height="68"><path d="M33.5 17C38.41 17 43.11 18.9 46.58 22.27C50.05 25.65 52 30.23 52 35C52 39.77 50.05 44.35 46.58 47.73C43.11 51.1 38.41 53 33.5 53C28.59 53 23.89 51.1 20.42 47.73C16.95 44.35 15 39.77 15 35C15 30.23 16.95 25.65 20.42 22.27C23.89 18.9 28.59 17 33.5 17M41.07 27.84C40.37 27.85 39.3 28.21 34.16 30.29C32.37 31.02 28.77 32.52 23.38 34.81C22.5 35.15 22.04 35.48 22 35.8C21.92 36.43 22.84 36.62 24 36.99C24.94 37.29 26.21 37.64 26.87 37.65C27.47 37.66 28.14 37.42 28.88 36.93C33.92 33.62 36.52 31.95 36.68 31.91C36.8 31.88 36.96 31.85 37.06 31.95C37.17 32.04 37.16 32.22 37.15 32.26C37.06 32.65 32.33 36.83 32.06 37.11C31.02 38.16 29.83 38.8 31.66 39.98C33.24 40.99 34.16 41.64 35.78 42.67C36.82 43.34 37.64 44.12 38.72 44.03C39.21 43.98 39.72 43.53 39.98 42.18C40.59 39 41.8 32.09 42.07 29.24C42.1 28.99 42.07 28.67 42.05 28.53C42.02 28.39 41.97 28.19 41.78 28.05C41.56 27.87 41.22 27.83 41.07 27.84" fill="currentColor"/><path d="M66 34L65 34C65 51.12 51.12 65 34 65L34 66L34 67C52.23 67 67 52.23 67 34L66 34M34 66L34 65C16.88 65 3 51.12 3 34L2 34L1 34C1 52.23 15.77 67 34 67L34 66M2 34L3 34C3 16.88 16.88 3 34 3L34 2L34 1C15.77 1 1 15.77 1 34L2 34M34 2L34 3C51.12 3 65 16.88 65 34L66 34L67 34C67 15.77 52.23 1 34 1L34 2" fill="currentColor"/></svg>